<svg xmlns="http://www.w3.org/2000/svg" xmlns:xlink="http://www.w3.org/1999/xlink"><symbol id="xyz" viewBox="0 0 24 24"><path d="M6.77 10.192v4.058q0 .192.124.317.125.125.317.125.19 0 .317-.125.126-.125.126-.317v-4.5q0-.192-.125-.317-.126-.125-.317-.125H5.827q-.192 0-.317.125t-.125.316.125.317q.125.126.317.126zm3.115 4.5h2.346q.327 0 .548-.22.221-.222.221-.549v-3.846q0-.327-.221-.548-.221-.221-.548-.221H9.885q-.327 0-.548.22-.222.222-.222.549v3.846q0 .327.222.548.22.221.548.221m.115-.884v-3.616h2.115v3.616zm5.346-1.481 2.166 2.225q.05.056.319.14.29 0 .404-.262.113-.263-.085-.478l-1.938-1.99 1.963-1.958q.198-.196.075-.446t-.4-.25q-.079 0-.16.038t-.14.102l-2.204 2.187V9.75q0-.192-.125-.317t-.316-.125q-.192 0-.317.125-.126.125-.126.317v4.5q0 .192.125.317t.316.125.317-.125q.126-.125.126-.317zM5.616 20q-.691 0-1.153-.462Q4 19.075 4 18.385V5.615q0-.69.463-1.152Q4.925 4 5.615 4h12.77q.69 0 1.152.463.463.462.463 1.152v12.77q0 .69-.462 1.152-.463.463-1.153.463z"/></symbol></svg>